<svg xmlns="http://www.w3.org/2000/svg" viewBox="0 0 1600 800" preserveAspectRatio="xMidYMid slice"><defs><linearGradient id="g" x1="0" x2="0" y1="0" y2="1"><stop offset="0" stop-color="#0B2B33"/><stop offset=".7" stop-color="#1E7C7A"/><stop offset="1" stop-color="#05080C"/></linearGradient></defs><rect width="1600" height="800" fill="url(#g)"/><circle cx="937" cy="470" r="70" fill="#FFB27A" opacity=".55"/><rect x="0" y="497" width="72" height="303" fill="#070B11"/><rect x="54" y="776" width="5" height="7" fill="#FFB27A" opacity=".8"/><rect x="57" y="743" width="5" height="7" fill="#FFB27A" opacity=".8"/><rect x="45" y="531" width="5" height="7" fill="#FFB27A" opacity=".8"/><rect x="11" y="695" width="5" height="7" fill="#35C2C1" opacity=".8"/><rect x="59" y="631" width="5" height="7" fill="#35C2C1" opacity=".8"/><rect x="38" y="557" width="5" height="7" fill="#FFD9A8" opacity=".8"/><rect x="19" y="511" width="5" height="7" fill="#FFD9A8" opacity=".8"/><rect x="17" y="713" width="5" height="7" fill="#35C2C1" opacity=".8"/><rect x="15" y="704" width="5" height="7" fill="#FFB27A" opacity=".8"/><rect x="52" y="541" width="5" height="7" fill="#FFB27A" opacity=".8"/><rect x="43" y="732" width="5" height="7" fill="#FFB27A" opacity=".8"/><rect x="12" y="505" width="5" height="7" fill="#FFB27A" opacity=".8"/><rect x="17" y="615" width="5" height="7" fill="#FFB27A" opacity=".8"/><rect x="59" y="590" width="5" height="7" fill="#35C2C1" opacity=".8"/><rect x="24" y="606" width="5" height="7" fill="#FFD9A8" opacity=".8"/><rect x="77" y="587" width="66" height="213" fill="#070B11"/><rect x="125" y="645" width="5" height="7" fill="#35C2C1" opacity=".8"/><rect x="100" y="600" width="5" height="7" fill="#35C2C1" opacity=".8"/><rect x="107" y="637" width="5" height="7" fill="#FFB27A" opacity=".8"/><rect x="97" y="611" width="5" height="7" fill="#35C2C1" opacity=".8"/><rect x="100" y="749" width="5" height="7" fill="#FFD9A8" opacity=".8"/><rect x="81" y="747" width="5" height="7" fill="#FFD9A8" opacity=".8"/><rect x="126" y="681" width="5" height="7" fill="#FFB27A" opacity=".8"/><rect x="100" y="685" width="5" height="7" fill="#35C2C1" opacity=".8"/><rect x="111" y="773" width="5" height="7" fill="#35C2C1" opacity=".8"/><rect x="92" y="718" width="5" height="7" fill="#35C2C1" opacity=".8"/><rect x="148" y="651" width="62" height="149" fill="#070B11"/><rect x="168" y="664" width="5" height="7" fill="#FFD9A8" opacity=".8"/><rect x="174" y="762" width="5" height="7" fill="#FFB27A" opacity=".8"/><rect x="187" y="766" width="5" height="7" fill="#35C2C1" opacity=".8"/><rect x="176" y="661" width="5" height="7" fill="#35C2C1" opacity=".8"/><rect x="154" y="705" width="5" height="7" fill="#FFD9A8" opacity=".8"/><rect x="164" y="689" width="5" height="7" fill="#FFB27A" opacity=".8"/><rect x="216" y="504" width="99" height="296" fill="#070B11"/><rect x="285" y="693" width="5" height="7" fill="#FFD9A8" opacity=".8"/><rect x="252" y="748" width="5" height="7" fill="#FFB27A" opacity=".8"/><rect x="295" y="700" width="5" height="7" fill="#35C2C1" opacity=".8"/><rect x="224" y="733" width="5" height="7" fill="#FFB27A" opacity=".8"/><rect x="246" y="686" width="5" height="7" fill="#FFD9A8" opacity=".8"/><rect x="298" y="697" width="5" height="7" fill="#FFB27A" opacity=".8"/><rect x="263" y="653" width="5" height="7" fill="#FFD9A8" opacity=".8"/><rect x="289" y="559" width="5" height="7" fill="#35C2C1" opacity=".8"/><rect x="260" y="668" width="5" height="7" fill="#FFB27A" opacity=".8"/><rect x="230" y="588" width="5" height="7" fill="#FFD9A8" opacity=".8"/><rect x="259" y="759" width="5" height="7" fill="#FFB27A" opacity=".8"/><rect x="226" y="553" width="5" height="7" fill="#FFD9A8" opacity=".8"/><rect x="288" y="719" width="5" height="7" fill="#FFB27A" opacity=".8"/><rect x="250" y="688" width="5" height="7" fill="#35C2C1" opacity=".8"/><rect x="278" y="727" width="5" height="7" fill="#FFB27A" opacity=".8"/><rect x="227" y="528" width="5" height="7" fill="#35C2C1" opacity=".8"/><rect x="262" y="618" width="5" height="7" fill="#FFB27A" opacity=".8"/><rect x="292" y="579" width="5" height="7" fill="#FFD9A8" opacity=".8"/><rect x="272" y="566" width="5" height="7" fill="#FFB27A" opacity=".8"/><rect x="275" y="702" width="5" height="7" fill="#FFB27A" opacity=".8"/><rect x="315" y="530" width="93" height="270" fill="#070B11"/><rect x="337" y="654" width="5" height="7" fill="#FFD9A8" opacity=".8"/><rect x="340" y="787" width="5" height="7" fill="#FFD9A8" opacity=".8"/><rect x="377" y="783" width="5" height="7" fill="#35C2C1" opacity=".8"/><rect x="359" y="660" width="5" height="7" fill="#35C2C1" opacity=".8"/><rect x="356" y="658" width="5" height="7" fill="#35C2C1" opacity=".8"/><rect x="337" y="566" width="5" height="7" fill="#35C2C1" opacity=".8"/><rect x="387" y="783" width="5" height="7" fill="#FFB27A" opacity=".8"/><rect x="382" y="760" width="5" height="7" fill="#35C2C1" opacity=".8"/><rect x="342" y="560" width="5" height="7" fill="#35C2C1" opacity=".8"/><rect x="353" y="669" width="5" height="7" fill="#FFD9A8" opacity=".8"/><rect x="383" y="630" width="5" height="7" fill="#FFB27A" opacity=".8"/><rect x="364" y="715" width="5" height="7" fill="#FFD9A8" opacity=".8"/><rect x="323" y="732" width="5" height="7" fill="#35C2C1" opacity=".8"/><rect x="365" y="681" width="5" height="7" fill="#FFD9A8" opacity=".8"/><rect x="354" y="751" width="5" height="7" fill="#35C2C1" opacity=".8"/><rect x="352" y="735" width="5" height="7" fill="#FFD9A8" opacity=".8"/><rect x="356" y="782" width="5" height="7" fill="#35C2C1" opacity=".8"/><rect x="413" y="383" width="62" height="417" fill="#070B11"/><rect x="417" y="633" width="5" height="7" fill="#FFD9A8" opacity=".8"/><rect x="433" y="557" width="5" height="7" fill="#FFD9A8" opacity=".8"/><rect x="434" y="628" width="5" height="7" fill="#35C2C1" opacity=".8"/><rect x="449" y="722" width="5" height="7" fill="#FFD9A8" opacity=".8"/><rect x="439" y="569" width="5" height="7" fill="#35C2C1" opacity=".8"/><rect x="458" y="567" width="5" height="7" fill="#FFD9A8" opacity=".8"/><rect x="443" y="570" width="5" height="7" fill="#FFB27A" opacity=".8"/><rect x="461" y="621" width="5" height="7" fill="#35C2C1" opacity=".8"/><rect x="438" y="656" width="5" height="7" fill="#FFB27A" opacity=".8"/><rect x="450" y="476" width="5" height="7" fill="#FFB27A" opacity=".8"/><rect x="440" y="635" width="5" height="7" fill="#35C2C1" opacity=".8"/><rect x="461" y="431" width="5" height="7" fill="#FFD9A8" opacity=".8"/><rect x="459" y="764" width="5" height="7" fill="#35C2C1" opacity=".8"/><rect x="427" y="706" width="5" height="7" fill="#FFD9A8" opacity=".8"/><rect x="450" y="731" width="5" height="7" fill="#35C2C1" opacity=".8"/><rect x="436" y="710" width="5" height="7" fill="#FFD9A8" opacity=".8"/><rect x="457" y="529" width="5" height="7" fill="#FFD9A8" opacity=".8"/><rect x="418" y="491" width="5" height="7" fill="#FFB27A" opacity=".8"/><rect x="479" y="588" width="96" height="212" fill="#070B11"/><rect x="511" y="771" width="5" height="7" fill="#FFB27A" opacity=".8"/><rect x="563" y="779" width="5" height="7" fill="#FFB27A" opacity=".8"/><rect x="543" y="653" width="5" height="7" fill="#FFB27A" opacity=".8"/><rect x="489" y="630" width="5" height="7" fill="#FFB27A" opacity=".8"/><rect x="523" y="642" width="5" height="7" fill="#35C2C1" opacity=".8"/><rect x="507" y="736" width="5" height="7" fill="#FFB27A" opacity=".8"/><rect x="536" y="715" width="5" height="7" fill="#35C2C1" opacity=".8"/><rect x="531" y="765" width="5" height="7" fill="#FFD9A8" opacity=".8"/><rect x="492" y="747" width="5" height="7" fill="#FFB27A" opacity=".8"/><rect x="513" y="779" width="5" height="7" fill="#35C2C1" opacity=".8"/><rect x="483" y="685" width="5" height="7" fill="#35C2C1" opacity=".8"/><rect x="518" y="700" width="5" height="7" fill="#FFB27A" opacity=".8"/><rect x="553" y="691" width="5" height="7" fill="#FFB27A" opacity=".8"/><rect x="553" y="753" width="5" height="7" fill="#35C2C1" opacity=".8"/><rect x="575" y="401" width="77" height="399" fill="#070B11"/><rect x="622" y="706" width="5" height="7" fill="#35C2C1" opacity=".8"/><rect x="624" y="475" width="5" height="7" fill="#35C2C1" opacity=".8"/><rect x="631" y="697" width="5" height="7" fill="#FFD9A8" opacity=".8"/><rect x="626" y="648" width="5" height="7" fill="#FFB27A" opacity=".8"/><rect x="599" y="714" width="5" height="7" fill="#35C2C1" opacity=".8"/><rect x="640" y="510" width="5" height="7" fill="#FFB27A" opacity=".8"/><rect x="590" y="588" width="5" height="7" fill="#FFD9A8" opacity=".8"/><rect x="579" y="604" width="5" height="7" fill="#FFB27A" opacity=".8"/><rect x="620" y="698" width="5" height="7" fill="#FFD9A8" opacity=".8"/><rect x="597" y="575" width="5" height="7" fill="#FFD9A8" opacity=".8"/><rect x="627" y="628" width="5" height="7" fill="#35C2C1" opacity=".8"/><rect x="607" y="661" width="5" height="7" fill="#35C2C1" opacity=".8"/><rect x="640" y="771" width="5" height="7" fill="#35C2C1" opacity=".8"/><rect x="628" y="490" width="5" height="7" fill="#FFD9A8" opacity=".8"/><rect x="612" y="788" width="5" height="7" fill="#35C2C1" opacity=".8"/><rect x="642" y="537" width="5" height="7" fill="#35C2C1" opacity=".8"/><rect x="581" y="572" width="5" height="7" fill="#35C2C1" opacity=".8"/><rect x="641" y="555" width="5" height="7" fill="#FFB27A" opacity=".8"/><rect x="640" y="421" width="5" height="7" fill="#FFB27A" opacity=".8"/><rect x="635" y="534" width="5" height="7" fill="#35C2C1" opacity=".8"/><rect x="584" y="478" width="5" height="7" fill="#35C2C1" opacity=".8"/><rect x="652" y="408" width="101" height="392" fill="#070B11"/><rect x="727" y="556" width="5" height="7" fill="#FFB27A" opacity=".8"/><rect x="716" y="434" width="5" height="7" fill="#FFB27A" opacity=".8"/><rect x="718" y="553" width="5" height="7" fill="#FFB27A" opacity=".8"/><rect x="692" y="566" width="5" height="7" fill="#35C2C1" opacity=".8"/><rect x="733" y="659" width="5" height="7" fill="#FFD9A8" opacity=".8"/><rect x="738" y="725" width="5" height="7" fill="#FFD9A8" opacity=".8"/><rect x="671" y="424" width="5" height="7" fill="#FFB27A" opacity=".8"/><rect x="694" y="560" width="5" height="7" fill="#FFD9A8" opacity=".8"/><rect x="699" y="730" width="5" height="7" fill="#35C2C1" opacity=".8"/><rect x="723" y="429" width="5" height="7" fill="#35C2C1" opacity=".8"/><rect x="700" y="600" width="5" height="7" fill="#FFD9A8" opacity=".8"/><rect x="731" y="483" width="5" height="7" fill="#FFB27A" opacity=".8"/><rect x="656" y="545" width="5" height="7" fill="#FFD9A8" opacity=".8"/><rect x="714" y="767" width="5" height="7" fill="#FFB27A" opacity=".8"/><rect x="743" y="695" width="5" height="7" fill="#FFB27A" opacity=".8"/><rect x="657" y="635" width="5" height="7" fill="#35C2C1" opacity=".8"/><rect x="732" y="710" width="5" height="7" fill="#FFD9A8" opacity=".8"/><rect x="736" y="748" width="5" height="7" fill="#35C2C1" opacity=".8"/><rect x="705" y="659" width="5" height="7" fill="#35C2C1" opacity=".8"/><rect x="743" y="784" width="5" height="7" fill="#FFB27A" opacity=".8"/><rect x="693" y="654" width="5" height="7" fill="#FFB27A" opacity=".8"/><rect x="694" y="417" width="5" height="7" fill="#FFD9A8" opacity=".8"/><rect x="711" y="714" width="5" height="7" fill="#35C2C1" opacity=".8"/><rect x="738" y="657" width="5" height="7" fill="#35C2C1" opacity=".8"/><rect x="674" y="500" width="5" height="7" fill="#35C2C1" opacity=".8"/><rect x="726" y="670" width="5" height="7" fill="#35C2C1" opacity=".8"/><rect x="724" y="494" width="5" height="7" fill="#35C2C1" opacity=".8"/><rect x="730" y="693" width="5" height="7" fill="#FFB27A" opacity=".8"/><rect x="753" y="544" width="69" height="256" fill="#070B11"/><rect x="809" y="573" width="5" height="7" fill="#FFB27A" opacity=".8"/><rect x="799" y="558" width="5" height="7" fill="#35C2C1" opacity=".8"/><rect x="803" y="661" width="5" height="7" fill="#FFB27A" opacity=".8"/><rect x="782" y="731" width="5" height="7" fill="#35C2C1" opacity=".8"/><rect x="760" y="583" width="5" height="7" fill="#FFB27A" opacity=".8"/><rect x="771" y="709" width="5" height="7" fill="#FFD9A8" opacity=".8"/><rect x="809" y="580" width="5" height="7" fill="#FFD9A8" opacity=".8"/><rect x="765" y="626" width="5" height="7" fill="#FFD9A8" opacity=".8"/><rect x="785" y="590" width="5" height="7" fill="#FFB27A" opacity=".8"/><rect x="796" y="599" width="5" height="7" fill="#35C2C1" opacity=".8"/><rect x="808" y="593" width="5" height="7" fill="#FFB27A" opacity=".8"/><rect x="796" y="606" width="5" height="7" fill="#FFB27A" opacity=".8"/><rect x="826" y="486" width="53" height="314" fill="#070B11"/><rect x="834" y="637" width="5" height="7" fill="#FFB27A" opacity=".8"/><rect x="866" y="788" width="5" height="7" fill="#FFB27A" opacity=".8"/><rect x="855" y="562" width="5" height="7" fill="#FFB27A" opacity=".8"/><rect x="857" y="540" width="5" height="7" fill="#35C2C1" opacity=".8"/><rect x="868" y="744" width="5" height="7" fill="#35C2C1" opacity=".8"/><rect x="852" y="685" width="5" height="7" fill="#FFB27A" opacity=".8"/><rect x="838" y="644" width="5" height="7" fill="#FFB27A" opacity=".8"/><rect x="866" y="752" width="5" height="7" fill="#35C2C1" opacity=".8"/><rect x="865" y="775" width="5" height="7" fill="#FFD9A8" opacity=".8"/><rect x="844" y="628" width="5" height="7" fill="#FFB27A" opacity=".8"/><rect x="865" y="614" width="5" height="7" fill="#35C2C1" opacity=".8"/><rect x="885" y="416" width="76" height="384" fill="#070B11"/><rect x="951" y="492" width="5" height="7" fill="#FFB27A" opacity=".8"/><rect x="944" y="614" width="5" height="7" fill="#35C2C1" opacity=".8"/><rect x="936" y="623" width="5" height="7" fill="#FFB27A" opacity=".8"/><rect x="897" y="433" width="5" height="7" fill="#FFD9A8" opacity=".8"/><rect x="910" y="467" width="5" height="7" fill="#FFD9A8" opacity=".8"/><rect x="931" y="442" width="5" height="7" fill="#FFB27A" opacity=".8"/><rect x="944" y="487" width="5" height="7" fill="#FFD9A8" opacity=".8"/><rect x="927" y="656" width="5" height="7" fill="#FFB27A" opacity=".8"/><rect x="913" y="660" width="5" height="7" fill="#35C2C1" opacity=".8"/><rect x="950" y="589" width="5" height="7" fill="#FFB27A" opacity=".8"/><rect x="939" y="695" width="5" height="7" fill="#FFB27A" opacity=".8"/><rect x="923" y="620" width="5" height="7" fill="#FFB27A" opacity=".8"/><rect x="943" y="501" width="5" height="7" fill="#35C2C1" opacity=".8"/><rect x="932" y="538" width="5" height="7" fill="#FFD9A8" opacity=".8"/><rect x="896" y="466" width="5" height="7" fill="#FFD9A8" opacity=".8"/><rect x="920" y="532" width="5" height="7" fill="#FFB27A" opacity=".8"/><rect x="933" y="743" width="5" height="7" fill="#35C2C1" opacity=".8"/><rect x="911" y="544" width="5" height="7" fill="#35C2C1" opacity=".8"/><rect x="910" y="738" width="5" height="7" fill="#FFD9A8" opacity=".8"/><rect x="911" y="621" width="5" height="7" fill="#35C2C1" opacity=".8"/><rect x="962" y="529" width="85" height="271" fill="#070B11"/><rect x="1021" y="783" width="5" height="7" fill="#35C2C1" opacity=".8"/><rect x="1032" y="546" width="5" height="7" fill="#FFD9A8" opacity=".8"/><rect x="993" y="726" width="5" height="7" fill="#FFB27A" opacity=".8"/><rect x="1016" y="553" width="5" height="7" fill="#FFB27A" opacity=".8"/><rect x="970" y="545" width="5" height="7" fill="#FFB27A" opacity=".8"/><rect x="991" y="587" width="5" height="7" fill="#FFB27A" opacity=".8"/><rect x="1028" y="764" width="5" height="7" fill="#35C2C1" opacity=".8"/><rect x="1010" y="537" width="5" height="7" fill="#35C2C1" opacity=".8"/><rect x="1026" y="613" width="5" height="7" fill="#FFD9A8" opacity=".8"/><rect x="1020" y="619" width="5" height="7" fill="#35C2C1" opacity=".8"/><rect x="1025" y="562" width="5" height="7" fill="#FFB27A" opacity=".8"/><rect x="985" y="704" width="5" height="7" fill="#FFB27A" opacity=".8"/><rect x="975" y="632" width="5" height="7" fill="#35C2C1" opacity=".8"/><rect x="1026" y="575" width="5" height="7" fill="#FFD9A8" opacity=".8"/><rect x="998" y="565" width="5" height="7" fill="#35C2C1" opacity=".8"/><rect x="986" y="729" width="5" height="7" fill="#35C2C1" opacity=".8"/><rect x="1052" y="664" width="70" height="136" fill="#070B11"/><rect x="1086" y="786" width="5" height="7" fill="#FFB27A" opacity=".8"/><rect x="1078" y="768" width="5" height="7" fill="#35C2C1" opacity=".8"/><rect x="1076" y="679" width="5" height="7" fill="#FFD9A8" opacity=".8"/><rect x="1057" y="758" width="5" height="7" fill="#35C2C1" opacity=".8"/><rect x="1086" y="780" width="5" height="7" fill="#FFB27A" opacity=".8"/><rect x="1063" y="772" width="5" height="7" fill="#FFD9A8" opacity=".8"/><rect x="1124" y="448" width="77" height="352" fill="#070B11"/><rect x="1158" y="539" width="5" height="7" fill="#FFB27A" opacity=".8"/><rect x="1153" y="468" width="5" height="7" fill="#FFD9A8" opacity=".8"/><rect x="1157" y="496" width="5" height="7" fill="#FFD9A8" opacity=".8"/><rect x="1179" y="642" width="5" height="7" fill="#FFD9A8" opacity=".8"/><rect x="1167" y="550" width="5" height="7" fill="#35C2C1" opacity=".8"/><rect x="1174" y="600" width="5" height="7" fill="#FFB27A" opacity=".8"/><rect x="1187" y="539" width="5" height="7" fill="#FFB27A" opacity=".8"/><rect x="1150" y="562" width="5" height="7" fill="#FFB27A" opacity=".8"/><rect x="1183" y="594" width="5" height="7" fill="#FFB27A" opacity=".8"/><rect x="1187" y="487" width="5" height="7" fill="#35C2C1" opacity=".8"/><rect x="1180" y="542" width="5" height="7" fill="#FFB27A" opacity=".8"/><rect x="1132" y="736" width="5" height="7" fill="#FFD9A8" opacity=".8"/><rect x="1172" y="504" width="5" height="7" fill="#FFD9A8" opacity=".8"/><rect x="1137" y="577" width="5" height="7" fill="#35C2C1" opacity=".8"/><rect x="1139" y="697" width="5" height="7" fill="#FFB27A" opacity=".8"/><rect x="1159" y="785" width="5" height="7" fill="#FFB27A" opacity=".8"/><rect x="1191" y="659" width="5" height="7" fill="#FFB27A" opacity=".8"/><rect x="1134" y="586" width="5" height="7" fill="#35C2C1" opacity=".8"/><rect x="1185" y="612" width="5" height="7" fill="#FFD9A8" opacity=".8"/><rect x="1201" y="581" width="44" height="219" fill="#070B11"/><rect x="1210" y="767" width="5" height="7" fill="#FFD9A8" opacity=".8"/><rect x="1225" y="692" width="5" height="7" fill="#FFB27A" opacity=".8"/><rect x="1222" y="648" width="5" height="7" fill="#FFB27A" opacity=".8"/><rect x="1234" y="669" width="5" height="7" fill="#FFB27A" opacity=".8"/><rect x="1207" y="727" width="5" height="7" fill="#FFB27A" opacity=".8"/><rect x="1224" y="608" width="5" height="7" fill="#FFD9A8" opacity=".8"/><rect x="1246" y="455" width="42" height="345" fill="#070B11"/><rect x="1267" y="646" width="5" height="7" fill="#35C2C1" opacity=".8"/><rect x="1263" y="755" width="5" height="7" fill="#35C2C1" opacity=".8"/><rect x="1266" y="783" width="5" height="7" fill="#FFB27A" opacity=".8"/><rect x="1273" y="469" width="5" height="7" fill="#35C2C1" opacity=".8"/><rect x="1272" y="692" width="5" height="7" fill="#FFB27A" opacity=".8"/><rect x="1267" y="522" width="5" height="7" fill="#FFB27A" opacity=".8"/><rect x="1259" y="710" width="5" height="7" fill="#FFB27A" opacity=".8"/><rect x="1274" y="597" width="5" height="7" fill="#35C2C1" opacity=".8"/><rect x="1260" y="530" width="5" height="7" fill="#FFB27A" opacity=".8"/><rect x="1267" y="504" width="5" height="7" fill="#35C2C1" opacity=".8"/><rect x="1289" y="461" width="50" height="339" fill="#070B11"/><rect x="1329" y="594" width="5" height="7" fill="#35C2C1" opacity=".8"/><rect x="1296" y="721" width="5" height="7" fill="#FFD9A8" opacity=".8"/><rect x="1308" y="493" width="5" height="7" fill="#FFD9A8" opacity=".8"/><rect x="1305" y="615" width="5" height="7" fill="#35C2C1" opacity=".8"/><rect x="1299" y="505" width="5" height="7" fill="#35C2C1" opacity=".8"/><rect x="1313" y="663" width="5" height="7" fill="#FFD9A8" opacity=".8"/><rect x="1293" y="615" width="5" height="7" fill="#FFD9A8" opacity=".8"/><rect x="1301" y="763" width="5" height="7" fill="#FFB27A" opacity=".8"/><rect x="1321" y="542" width="5" height="7" fill="#FFD9A8" opacity=".8"/><rect x="1294" y="493" width="5" height="7" fill="#FFD9A8" opacity=".8"/><rect x="1320" y="606" width="5" height="7" fill="#FFB27A" opacity=".8"/><rect x="1317" y="756" width="5" height="7" fill="#FFB27A" opacity=".8"/><rect x="1341" y="524" width="48" height="276" fill="#070B11"/><rect x="1355" y="602" width="5" height="7" fill="#35C2C1" opacity=".8"/><rect x="1376" y="697" width="5" height="7" fill="#35C2C1" opacity=".8"/><rect x="1347" y="564" width="5" height="7" fill="#FFD9A8" opacity=".8"/><rect x="1346" y="546" width="5" height="7" fill="#FFB27A" opacity=".8"/><rect x="1348" y="598" width="5" height="7" fill="#35C2C1" opacity=".8"/><rect x="1372" y="664" width="5" height="7" fill="#FFD9A8" opacity=".8"/><rect x="1346" y="650" width="5" height="7" fill="#FFD9A8" opacity=".8"/><rect x="1372" y="596" width="5" height="7" fill="#35C2C1" opacity=".8"/><rect x="1357" y="701" width="5" height="7" fill="#35C2C1" opacity=".8"/><rect x="1389" y="381" width="60" height="419" fill="#070B11"/><rect x="1432" y="472" width="5" height="7" fill="#FFD9A8" opacity=".8"/><rect x="1399" y="526" width="5" height="7" fill="#FFD9A8" opacity=".8"/><rect x="1431" y="476" width="5" height="7" fill="#FFD9A8" opacity=".8"/><rect x="1438" y="462" width="5" height="7" fill="#35C2C1" opacity=".8"/><rect x="1420" y="608" width="5" height="7" fill="#FFB27A" opacity=".8"/><rect x="1414" y="551" width="5" height="7" fill="#35C2C1" opacity=".8"/><rect x="1407" y="625" width="5" height="7" fill="#FFD9A8" opacity=".8"/><rect x="1420" y="476" width="5" height="7" fill="#35C2C1" opacity=".8"/><rect x="1396" y="781" width="5" height="7" fill="#FFD9A8" opacity=".8"/><rect x="1403" y="661" width="5" height="7" fill="#35C2C1" opacity=".8"/><rect x="1424" y="694" width="5" height="7" fill="#FFB27A" opacity=".8"/><rect x="1399" y="453" width="5" height="7" fill="#35C2C1" opacity=".8"/><rect x="1436" y="415" width="5" height="7" fill="#FFB27A" opacity=".8"/><rect x="1393" y="405" width="5" height="7" fill="#FFD9A8" opacity=".8"/><rect x="1408" y="635" width="5" height="7" fill="#FFD9A8" opacity=".8"/><rect x="1415" y="590" width="5" height="7" fill="#35C2C1" opacity=".8"/><rect x="1406" y="492" width="5" height="7" fill="#35C2C1" opacity=".8"/><rect x="1455" y="525" width="65" height="275" fill="#070B11"/><rect x="1494" y="715" width="5" height="7" fill="#FFB27A" opacity=".8"/><rect x="1482" y="713" width="5" height="7" fill="#FFB27A" opacity=".8"/><rect x="1501" y="564" width="5" height="7" fill="#FFD9A8" opacity=".8"/><rect x="1490" y="738" width="5" height="7" fill="#35C2C1" opacity=".8"/><rect x="1468" y="606" width="5" height="7" fill="#FFB27A" opacity=".8"/><rect x="1490" y="728" width="5" height="7" fill="#FFB27A" opacity=".8"/><rect x="1465" y="619" width="5" height="7" fill="#35C2C1" opacity=".8"/><rect x="1465" y="677" width="5" height="7" fill="#FFB27A" opacity=".8"/><rect x="1509" y="698" width="5" height="7" fill="#35C2C1" opacity=".8"/><rect x="1502" y="773" width="5" height="7" fill="#FFD9A8" opacity=".8"/><rect x="1498" y="579" width="5" height="7" fill="#FFB27A" opacity=".8"/><rect x="1483" y="538" width="5" height="7" fill="#FFB27A" opacity=".8"/><rect x="1524" y="481" width="63" height="319" fill="#070B11"/><rect x="1529" y="651" width="5" height="7" fill="#FFD9A8" opacity=".8"/><rect x="1529" y="648" width="5" height="7" fill="#FFD9A8" opacity=".8"/><rect x="1552" y="745" width="5" height="7" fill="#35C2C1" opacity=".8"/><rect x="1562" y="693" width="5" height="7" fill="#35C2C1" opacity=".8"/><rect x="1565" y="774" width="5" height="7" fill="#FFD9A8" opacity=".8"/><rect x="1531" y="763" width="5" height="7" fill="#FFB27A" opacity=".8"/><rect x="1554" y="674" width="5" height="7" fill="#FFD9A8" opacity=".8"/><rect x="1529" y="756" width="5" height="7" fill="#FFB27A" opacity=".8"/><rect x="1546" y="635" width="5" height="7" fill="#FFB27A" opacity=".8"/><rect x="1529" y="533" width="5" height="7" fill="#35C2C1" opacity=".8"/><rect x="1567" y="786" width="5" height="7" fill="#FFD9A8" opacity=".8"/><rect x="1554" y="646" width="5" height="7" fill="#FFB27A" opacity=".8"/><rect x="1545" y="609" width="5" height="7" fill="#FFB27A" opacity=".8"/><rect x="1530" y="534" width="5" height="7" fill="#FFD9A8" opacity=".8"/><rect x="1589" y="393" width="84" height="407" fill="#070B11"/><rect x="1619" y="648" width="5" height="7" fill="#FFD9A8" opacity=".8"/><rect x="1604" y="462" width="5" height="7" fill="#FFB27A" opacity=".8"/><rect x="1636" y="679" width="5" height="7" fill="#35C2C1" opacity=".8"/><rect x="1643" y="402" width="5" height="7" fill="#FFD9A8" opacity=".8"/><rect x="1642" y="594" width="5" height="7" fill="#FFB27A" opacity=".8"/><rect x="1660" y="507" width="5" height="7" fill="#FFD9A8" opacity=".8"/><rect x="1634" y="598" width="5" height="7" fill="#35C2C1" opacity=".8"/><rect x="1606" y="753" width="5" height="7" fill="#FFD9A8" opacity=".8"/><rect x="1640" y="528" width="5" height="7" fill="#FFB27A" opacity=".8"/><rect x="1620" y="551" width="5" height="7" fill="#35C2C1" opacity=".8"/><rect x="1627" y="719" width="5" height="7" fill="#FFB27A" opacity=".8"/><rect x="1614" y="440" width="5" height="7" fill="#FFD9A8" opacity=".8"/><rect x="1645" y="495" width="5" height="7" fill="#FFB27A" opacity=".8"/><rect x="1601" y="692" width="5" height="7" fill="#FFD9A8" opacity=".8"/><rect x="1662" y="773" width="5" height="7" fill="#35C2C1" opacity=".8"/><rect x="1646" y="519" width="5" height="7" fill="#35C2C1" opacity=".8"/><rect x="1654" y="671" width="5" height="7" fill="#FFD9A8" opacity=".8"/><rect x="1624" y="555" width="5" height="7" fill="#35C2C1" opacity=".8"/><rect x="1628" y="444" width="5" height="7" fill="#FFD9A8" opacity=".8"/><rect x="1635" y="496" width="5" height="7" fill="#35C2C1" opacity=".8"/><rect x="1596" y="477" width="5" height="7" fill="#FFB27A" opacity=".8"/><rect x="1630" y="689" width="5" height="7" fill="#FFD9A8" opacity=".8"/><rect x="1616" y="623" width="5" height="7" fill="#FFB27A" opacity=".8"/><rect x="1634" y="705" width="5" height="7" fill="#FFB27A" opacity=".8"/></svg>